<?xml version="1.0" encoding="utf-8"?>
<svg xmlns="http://www.w3.org/2000/svg" xmlns:xlink="http://www.w3.org/1999/xlink" xml:space="preserve" width="750" height="937.5" viewBox="0 0 750 937.5"><defs><linearGradient id="pattern-mask" x1="0%" y1="0%" x2="12%" y2="100%" gradientUnits="userSpaceOnUse"><stop offset="0%" stop-color="#000000"/><stop offset="100%" stop-color="#8900d5"/></linearGradient>
<mask id="qrmask"><g fill="#ffffff"><g transform="scale(31.25)" fill="#100f4e"><path d="M1.3,24l21.3,0c0.7,0,1.3-0.6,1.3-1.3l0-21.3C24,0.6,23.4,0,22.7,0L1.3,0C0.6,0,0,0.6,0,1.3l0,21.3 C0,23.4,0.6,24,1.3,24z M1,2c0-0.6,0.5-1,1-1l20,0c0.6,0,1,0.5,1,1v20c0,0.6-0.5,1-1,1L2,23c-0.6,0-1-0.5-1-1V2z"/><path d="M1,30h22c0.5,0,1-0.4,1-1v-3c0-0.5-0.4-1-1-1H13l-1-1l-1,1H1c-0.5,0-1,0.4-1,1v3C0,29.6,0.4,30,1,30z"/></g>
<g>
<g transform="translate(267,75) scale(4.12)"><rect width="6" height="6"/></g>
<g transform="translate(315,75) scale(4.12)"><rect width="6" height="6"/></g>
<g transform="translate(363,75) scale(4.12)"><rect width="6" height="6"/></g>
<g transform="translate(387,75) scale(4.12)"><rect width="6" height="6"/></g>
<g transform="translate(411,75) scale(4.12)"><rect width="6" height="6"/></g>
<g transform="translate(435,75) scale(4.12)"><rect width="6" height="6"/></g>
<g transform="translate(291,99) scale(4.12)"><rect width="6" height="6"/></g>
<g transform="translate(387,99) scale(4.12)"><rect width="6" height="6"/></g>
<g transform="translate(411,99) scale(4.12)"><rect width="6" height="6"/></g>
<g transform="translate(435,99) scale(4.12)"><rect width="6" height="6"/></g>
<g transform="translate(459,99) scale(4.12)"><rect width="6" height="6"/></g>
<g transform="translate(291,123) scale(4.12)"><rect width="6" height="6"/></g>
<g transform="translate(315,123) scale(4.12)"><rect width="6" height="6"/></g>
<g transform="translate(339,123) scale(4.12)"><rect width="6" height="6"/></g>
<g transform="translate(363,123) scale(4.12)"><rect width="6" height="6"/></g>
<g transform="translate(387,123) scale(4.12)"><rect width="6" height="6"/></g>
<g transform="translate(435,123) scale(4.12)"><rect width="6" height="6"/></g>
<g transform="translate(291,147) scale(4.12)"><rect width="6" height="6"/></g>
<g transform="translate(339,147) scale(4.12)"><rect width="6" height="6"/></g>
<g transform="translate(411,147) scale(4.12)"><rect width="6" height="6"/></g>
<g transform="translate(435,147) scale(4.12)"><rect width="6" height="6"/></g>
<g transform="translate(267,171) scale(4.12)"><rect width="6" height="6"/></g>
<g transform="translate(291,171) scale(4.12)"><rect width="6" height="6"/></g>
<g transform="translate(339,171) scale(4.12)"><rect width="6" height="6"/></g>
<g transform="translate(363,171) scale(4.12)"><rect width="6" height="6"/></g>
<g transform="translate(435,171) scale(4.12)"><rect width="6" height="6"/></g>
<g transform="translate(459,171) scale(4.12)"><rect width="6" height="6"/></g>
<g transform="translate(267,195) scale(4.12)"><rect width="6" height="6"/></g>
<g transform="translate(315,195) scale(4.12)"><rect width="6" height="6"/></g>
<g transform="translate(363,195) scale(4.12)"><rect width="6" height="6"/></g>
<g transform="translate(267,219) scale(4.12)"><rect width="6" height="6"/></g>
<g transform="translate(315,219) scale(4.12)"><rect width="6" height="6"/></g>
<g transform="translate(363,219) scale(4.12)"><rect width="6" height="6"/></g>
<g transform="translate(411,219) scale(4.12)"><rect width="6" height="6"/></g>
<g transform="translate(459,219) scale(4.12)"><rect width="6" height="6"/></g>
<g transform="translate(411,243) scale(4.12)"><rect width="6" height="6"/></g>
<g transform="translate(459,243) scale(4.12)"><rect width="6" height="6"/></g>
<g transform="translate(99,267) scale(4.12)"><rect width="6" height="6"/></g>
<g transform="translate(123,267) scale(4.12)"><rect width="6" height="6"/></g>
<g transform="translate(147,267) scale(4.12)"><rect width="6" height="6"/></g>
<g transform="translate(171,267) scale(4.12)"><rect width="6" height="6"/></g>
<g transform="translate(195,267) scale(4.12)"><rect width="6" height="6"/></g>
<g transform="translate(219,267) scale(4.12)"><rect width="6" height="6"/></g>
<g transform="translate(243,267) scale(4.12)"><rect width="6" height="6"/></g>
<g transform="translate(291,267) scale(4.12)"><rect width="6" height="6"/></g>
<g transform="translate(315,267) scale(4.12)"><rect width="6" height="6"/></g>
<g transform="translate(363,267) scale(4.12)"><rect width="6" height="6"/></g>
<g transform="translate(459,267) scale(4.12)"><rect width="6" height="6"/></g>
<g transform="translate(531,267) scale(4.12)"><rect width="6" height="6"/></g>
<g transform="translate(555,267) scale(4.12)"><rect width="6" height="6"/></g>
<g transform="translate(651,267) scale(4.12)"><rect width="6" height="6"/></g>
<g transform="translate(75,291) scale(4.12)"><rect width="6" height="6"/></g>
<g transform="translate(123,291) scale(4.12)"><rect width="6" height="6"/></g>
<g transform="translate(243,291) scale(4.12)"><rect width="6" height="6"/></g>
<g transform="translate(291,291) scale(4.12)"><rect width="6" height="6"/></g>
<g transform="translate(315,291) scale(4.12)"><rect width="6" height="6"/></g>
<g transform="translate(339,291) scale(4.12)"><rect width="6" height="6"/></g>
<g transform="translate(363,291) scale(4.12)"><rect width="6" height="6"/></g>
<g transform="translate(387,291) scale(4.12)"><rect width="6" height="6"/></g>
<g transform="translate(411,291) scale(4.12)"><rect width="6" height="6"/></g>
<g transform="translate(435,291) scale(4.12)"><rect width="6" height="6"/></g>
<g transform="translate(483,291) scale(4.12)"><rect width="6" height="6"/></g>
<g transform="translate(555,291) scale(4.12)"><rect width="6" height="6"/></g>
<g transform="translate(603,291) scale(4.12)"><rect width="6" height="6"/></g>
<g transform="translate(147,315) scale(4.12)"><rect width="6" height="6"/></g>
<g transform="translate(171,315) scale(4.12)"><rect width="6" height="6"/></g>
<g transform="translate(195,315) scale(4.12)"><rect width="6" height="6"/></g>
<g transform="translate(219,315) scale(4.12)"><rect width="6" height="6"/></g>
<g transform="translate(267,315) scale(4.12)"><rect width="6" height="6"/></g>
<g transform="translate(387,315) scale(4.12)"><rect width="6" height="6"/></g>
<g transform="translate(411,315) scale(4.12)"><rect width="6" height="6"/></g>
<g transform="translate(435,315) scale(4.12)"><rect width="6" height="6"/></g>
<g transform="translate(459,315) scale(4.12)"><rect width="6" height="6"/></g>
<g transform="translate(507,315) scale(4.12)"><rect width="6" height="6"/></g>
<g transform="translate(531,315) scale(4.12)"><rect width="6" height="6"/></g>
<g transform="translate(555,315) scale(4.12)"><rect width="6" height="6"/></g>
<g transform="translate(579,315) scale(4.12)"><rect width="6" height="6"/></g>
<g transform="translate(627,315) scale(4.12)"><rect width="6" height="6"/></g>
<g transform="translate(651,315) scale(4.12)"><rect width="6" height="6"/></g>
<g transform="translate(123,339) scale(4.12)"><rect width="6" height="6"/></g>
<g transform="translate(147,339) scale(4.12)"><rect width="6" height="6"/></g>
<g transform="translate(267,339) scale(4.12)"><rect width="6" height="6"/></g>
<g transform="translate(291,339) scale(4.12)"><rect width="6" height="6"/></g>
<g transform="translate(363,339) scale(4.12)"><rect width="6" height="6"/></g>
<g transform="translate(387,339) scale(4.12)"><rect width="6" height="6"/></g>
<g transform="translate(435,339) scale(4.12)"><rect width="6" height="6"/></g>
<g transform="translate(483,339) scale(4.12)"><rect width="6" height="6"/></g>
<g transform="translate(507,339) scale(4.12)"><rect width="6" height="6"/></g>
<g transform="translate(531,339) scale(4.12)"><rect width="6" height="6"/></g>
<g transform="translate(555,339) scale(4.12)"><rect width="6" height="6"/></g>
<g transform="translate(579,339) scale(4.12)"><rect width="6" height="6"/></g>
<g transform="translate(627,339) scale(4.12)"><rect width="6" height="6"/></g>
<g transform="translate(651,339) scale(4.12)"><rect width="6" height="6"/></g>
<g transform="translate(75,363) scale(4.12)"><rect width="6" height="6"/></g>
<g transform="translate(147,363) scale(4.12)"><rect width="6" height="6"/></g>
<g transform="translate(171,363) scale(4.12)"><rect width="6" height="6"/></g>
<g transform="translate(219,363) scale(4.12)"><rect width="6" height="6"/></g>
<g transform="translate(291,363) scale(4.12)"><rect width="6" height="6"/></g>
<g transform="translate(315,363) scale(4.12)"><rect width="6" height="6"/></g>
<g transform="translate(339,363) scale(4.12)"><rect width="6" height="6"/></g>
<g transform="translate(363,363) scale(4.12)"><rect width="6" height="6"/></g>
<g transform="translate(411,363) scale(4.12)"><rect width="6" height="6"/></g>
<g transform="translate(435,363) scale(4.12)"><rect width="6" height="6"/></g>
<g transform="translate(483,363) scale(4.12)"><rect width="6" height="6"/></g>
<g transform="translate(531,363) scale(4.12)"><rect width="6" height="6"/></g>
<g transform="translate(555,363) scale(4.12)"><rect width="6" height="6"/></g>
<g transform="translate(579,363) scale(4.12)"><rect width="6" height="6"/></g>
<g transform="translate(603,363) scale(4.12)"><rect width="6" height="6"/></g>
<g transform="translate(627,363) scale(4.12)"><rect width="6" height="6"/></g>
<g transform="translate(651,363) scale(4.12)"><rect width="6" height="6"/></g>
<g transform="translate(75,387) scale(4.12)"><rect width="6" height="6"/></g>
<g transform="translate(123,387) scale(4.12)"><rect width="6" height="6"/></g>
<g transform="translate(171,387) scale(4.12)"><rect width="6" height="6"/></g>
<g transform="translate(195,387) scale(4.12)"><rect width="6" height="6"/></g>
<g transform="translate(267,387) scale(4.12)"><rect width="6" height="6"/></g>
<g transform="translate(291,387) scale(4.12)"><rect width="6" height="6"/></g>
<g transform="translate(339,387) scale(4.12)"><rect width="6" height="6"/></g>
<g transform="translate(435,387) scale(4.12)"><rect width="6" height="6"/></g>
<g transform="translate(459,387) scale(4.12)"><rect width="6" height="6"/></g>
<g transform="translate(483,387) scale(4.12)"><rect width="6" height="6"/></g>
<g transform="translate(507,387) scale(4.12)"><rect width="6" height="6"/></g>
<g transform="translate(555,387) scale(4.12)"><rect width="6" height="6"/></g>
<g transform="translate(579,387) scale(4.12)"><rect width="6" height="6"/></g>
<g transform="translate(75,411) scale(4.12)"><rect width="6" height="6"/></g>
<g transform="translate(123,411) scale(4.12)"><rect width="6" height="6"/></g>
<g transform="translate(195,411) scale(4.12)"><rect width="6" height="6"/></g>
<g transform="translate(219,411) scale(4.12)"><rect width="6" height="6"/></g>
<g transform="translate(291,411) scale(4.12)"><rect width="6" height="6"/></g>
<g transform="translate(315,411) scale(4.12)"><rect width="6" height="6"/></g>
<g transform="translate(339,411) scale(4.12)"><rect width="6" height="6"/></g>
<g transform="translate(363,411) scale(4.12)"><rect width="6" height="6"/></g>
<g transform="translate(387,411) scale(4.12)"><rect width="6" height="6"/></g>
<g transform="translate(507,411) scale(4.12)"><rect width="6" height="6"/></g>
<g transform="translate(531,411) scale(4.12)"><rect width="6" height="6"/></g>
<g transform="translate(579,411) scale(4.12)"><rect width="6" height="6"/></g>
<g transform="translate(627,411) scale(4.12)"><rect width="6" height="6"/></g>
<g transform="translate(651,411) scale(4.12)"><rect width="6" height="6"/></g>
<g transform="translate(75,435) scale(4.12)"><rect width="6" height="6"/></g>
<g transform="translate(123,435) scale(4.12)"><rect width="6" height="6"/></g>
<g transform="translate(195,435) scale(4.12)"><rect width="6" height="6"/></g>
<g transform="translate(339,435) scale(4.12)"><rect width="6" height="6"/></g>
<g transform="translate(363,435) scale(4.12)"><rect width="6" height="6"/></g>
<g transform="translate(411,435) scale(4.12)"><rect width="6" height="6"/></g>
<g transform="translate(459,435) scale(4.12)"><rect width="6" height="6"/></g>
<g transform="translate(483,435) scale(4.12)"><rect width="6" height="6"/></g>
<g transform="translate(507,435) scale(4.12)"><rect width="6" height="6"/></g>
<g transform="translate(579,435) scale(4.12)"><rect width="6" height="6"/></g>
<g transform="translate(651,435) scale(4.12)"><rect width="6" height="6"/></g>
<g transform="translate(75,459) scale(4.12)"><rect width="6" height="6"/></g>
<g transform="translate(123,459) scale(4.12)"><rect width="6" height="6"/></g>
<g transform="translate(147,459) scale(4.12)"><rect width="6" height="6"/></g>
<g transform="translate(171,459) scale(4.12)"><rect width="6" height="6"/></g>
<g transform="translate(195,459) scale(4.12)"><rect width="6" height="6"/></g>
<g transform="translate(219,459) scale(4.12)"><rect width="6" height="6"/></g>
<g transform="translate(243,459) scale(4.12)"><rect width="6" height="6"/></g>
<g transform="translate(267,459) scale(4.12)"><rect width="6" height="6"/></g>
<g transform="translate(411,459) scale(4.12)"><rect width="6" height="6"/></g>
<g transform="translate(459,459) scale(4.12)"><rect width="6" height="6"/></g>
<g transform="translate(483,459) scale(4.12)"><rect width="6" height="6"/></g>
<g transform="translate(507,459) scale(4.12)"><rect width="6" height="6"/></g>
<g transform="translate(531,459) scale(4.12)"><rect width="6" height="6"/></g>
<g transform="translate(555,459) scale(4.12)"><rect width="6" height="6"/></g>
<g transform="translate(627,459) scale(4.12)"><rect width="6" height="6"/></g>
<g transform="translate(651,459) scale(4.12)"><rect width="6" height="6"/></g>
<g transform="translate(267,483) scale(4.12)"><rect width="6" height="6"/></g>
<g transform="translate(315,483) scale(4.12)"><rect width="6" height="6"/></g>
<g transform="translate(339,483) scale(4.12)"><rect width="6" height="6"/></g>
<g transform="translate(363,483) scale(4.12)"><rect width="6" height="6"/></g>
<g transform="translate(387,483) scale(4.12)"><rect width="6" height="6"/></g>
<g transform="translate(435,483) scale(4.12)"><rect width="6" height="6"/></g>
<g transform="translate(459,483) scale(4.12)"><rect width="6" height="6"/></g>
<g transform="translate(555,483) scale(4.12)"><rect width="6" height="6"/></g>
<g transform="translate(627,483) scale(4.12)"><rect width="6" height="6"/></g>
<g transform="translate(267,507) scale(4.12)"><rect width="6" height="6"/></g>
<g transform="translate(291,507) scale(4.12)"><rect width="6" height="6"/></g>
<g transform="translate(315,507) scale(4.12)"><rect width="6" height="6"/></g>
<g transform="translate(363,507) scale(4.12)"><rect width="6" height="6"/></g>
<g transform="translate(387,507) scale(4.12)"><rect width="6" height="6"/></g>
<g transform="translate(435,507) scale(4.12)"><rect width="6" height="6"/></g>
<g transform="translate(459,507) scale(4.12)"><rect width="6" height="6"/></g>
<g transform="translate(507,507) scale(4.12)"><rect width="6" height="6"/></g>
<g transform="translate(555,507) scale(4.12)"><rect width="6" height="6"/></g>
<g transform="translate(603,507) scale(4.12)"><rect width="6" height="6"/></g>
<g transform="translate(627,507) scale(4.12)"><rect width="6" height="6"/></g>
<g transform="translate(651,507) scale(4.12)"><rect width="6" height="6"/></g>
<g transform="translate(267,531) scale(4.12)"><rect width="6" height="6"/></g>
<g transform="translate(315,531) scale(4.12)"><rect width="6" height="6"/></g>
<g transform="translate(339,531) scale(4.12)"><rect width="6" height="6"/></g>
<g transform="translate(363,531) scale(4.12)"><rect width="6" height="6"/></g>
<g transform="translate(411,531) scale(4.12)"><rect width="6" height="6"/></g>
<g transform="translate(435,531) scale(4.12)"><rect width="6" height="6"/></g>
<g transform="translate(459,531) scale(4.12)"><rect width="6" height="6"/></g>
<g transform="translate(555,531) scale(4.12)"><rect width="6" height="6"/></g>
<g transform="translate(603,531) scale(4.12)"><rect width="6" height="6"/></g>
<g transform="translate(627,531) scale(4.12)"><rect width="6" height="6"/></g>
<g transform="translate(267,555) scale(4.12)"><rect width="6" height="6"/></g>
<g transform="translate(315,555) scale(4.12)"><rect width="6" height="6"/></g>
<g transform="translate(339,555) scale(4.12)"><rect width="6" height="6"/></g>
<g transform="translate(363,555) scale(4.12)"><rect width="6" height="6"/></g>
<g transform="translate(435,555) scale(4.12)"><rect width="6" height="6"/></g>
<g transform="translate(459,555) scale(4.12)"><rect width="6" height="6"/></g>
<g transform="translate(483,555) scale(4.12)"><rect width="6" height="6"/></g>
<g transform="translate(507,555) scale(4.12)"><rect width="6" height="6"/></g>
<g transform="translate(531,555) scale(4.12)"><rect width="6" height="6"/></g>
<g transform="translate(555,555) scale(4.12)"><rect width="6" height="6"/></g>
<g transform="translate(579,555) scale(4.12)"><rect width="6" height="6"/></g>
<g transform="translate(603,555) scale(4.12)"><rect width="6" height="6"/></g>
<g transform="translate(651,555) scale(4.12)"><rect width="6" height="6"/></g>
<g transform="translate(267,579) scale(4.12)"><rect width="6" height="6"/></g>
<g transform="translate(363,579) scale(4.12)"><rect width="6" height="6"/></g>
<g transform="translate(387,579) scale(4.12)"><rect width="6" height="6"/></g>
<g transform="translate(435,579) scale(4.12)"><rect width="6" height="6"/></g>
<g transform="translate(507,579) scale(4.12)"><rect width="6" height="6"/></g>
<g transform="translate(531,579) scale(4.12)"><rect width="6" height="6"/></g>
<g transform="translate(555,579) scale(4.12)"><rect width="6" height="6"/></g>
<g transform="translate(651,579) scale(4.12)"><rect width="6" height="6"/></g>
<g transform="translate(267,603) scale(4.12)"><rect width="6" height="6"/></g>
<g transform="translate(363,603) scale(4.12)"><rect width="6" height="6"/></g>
<g transform="translate(387,603) scale(4.12)"><rect width="6" height="6"/></g>
<g transform="translate(411,603) scale(4.12)"><rect width="6" height="6"/></g>
<g transform="translate(435,603) scale(4.12)"><rect width="6" height="6"/></g>
<g transform="translate(459,603) scale(4.12)"><rect width="6" height="6"/></g>
<g transform="translate(483,603) scale(4.12)"><rect width="6" height="6"/></g>
<g transform="translate(579,603) scale(4.12)"><rect width="6" height="6"/></g>
<g transform="translate(651,603) scale(4.12)"><rect width="6" height="6"/></g>
<g transform="translate(267,627) scale(4.12)"><rect width="6" height="6"/></g>
<g transform="translate(291,627) scale(4.12)"><rect width="6" height="6"/></g>
<g transform="translate(363,627) scale(4.12)"><rect width="6" height="6"/></g>
<g transform="translate(387,627) scale(4.12)"><rect width="6" height="6"/></g>
<g transform="translate(411,627) scale(4.12)"><rect width="6" height="6"/></g>
<g transform="translate(435,627) scale(4.12)"><rect width="6" height="6"/></g>
<g transform="translate(579,627) scale(4.12)"><rect width="6" height="6"/></g>
<g transform="translate(651,627) scale(4.12)"><rect width="6" height="6"/></g>
<g transform="translate(291,651) scale(4.12)"><rect width="6" height="6"/></g>
<g transform="translate(339,651) scale(4.12)"><rect width="6" height="6"/></g>
<g transform="translate(363,651) scale(4.12)"><rect width="6" height="6"/></g>
<g transform="translate(435,651) scale(4.12)"><rect width="6" height="6"/></g>
<g transform="translate(459,651) scale(4.12)"><rect width="6" height="6"/></g>
<g transform="translate(507,651) scale(4.12)"><rect width="6" height="6"/></g>
<g transform="translate(627,651) scale(4.12)"><rect width="6" height="6"/></g>
<g transform="translate(651,651) scale(4.12)"><rect width="6" height="6"/></g>
<g transform="translate(75,75)"><g transform="scale(12)"><path d="M0,0l0,14h14V0H0z M7,12L7,12c-2.8,0-5-2.2-5-5v0c0-2.8,2.2-5,5-5h0c2.8,0,5,2.2,5,5v0C12,9.8,9.8,12,7,12z"/></g></g>
<g transform="translate(507,75)"><g transform="scale(12)"><path d="M0,0l0,14h14V0H0z M7,12L7,12c-2.8,0-5-2.2-5-5v0c0-2.8,2.2-5,5-5h0c2.8,0,5,2.2,5,5v0C12,9.8,9.8,12,7,12z"/></g></g>
<g transform="translate(75,507)"><g transform="scale(12)"><path d="M0,0l0,14h14V0H0z M7,12L7,12c-2.8,0-5-2.2-5-5v0c0-2.8,2.2-5,5-5h0c2.8,0,5,2.2,5,5v0C12,9.8,9.8,12,7,12z"/></g></g>
<g transform="translate(123,123)"><g transform="scale(12)"><circle cx="3" cy="3" r="3"/></g></g>
<g transform="translate(555,123)"><g transform="scale(12)"><circle cx="3" cy="3" r="3"/></g></g>
<g transform="translate(123,555)"><g transform="scale(12)"><circle cx="3" cy="3" r="3"/></g></g>
</g></g></mask></defs><rect x="0" y="0" width="750" height="937.5" mask="url(#qrmask)" fill="url(#pattern-mask)"/><g fill="#100f4e" transform="scale(31.25)"><path d="M1.3,24l21.3,0c0.7,0,1.3-0.6,1.3-1.3l0-21.3C24,0.6,23.4,0,22.7,0L1.3,0C0.6,0,0,0.6,0,1.3l0,21.3 C0,23.4,0.6,24,1.3,24z M1,2c0-0.6,0.5-1,1-1l20,0c0.6,0,1,0.5,1,1v20c0,0.6-0.5,1-1,1L2,23c-0.6,0-1-0.5-1-1V2z"/><path d="M1,30h22c0.5,0,1-0.4,1-1v-3c0-0.5-0.4-1-1-1H13l-1-1l-1,1H1c-0.5,0-1,0.4-1,1v3C0,29.6,0.4,30,1,30z"/></g><g transform="translate(75,799.01930454152) scale(0.76030194282886)"><path fill="#FFFFFF" d="M41.2109375,91.845703125l0-8.3984375l30.322265625-0.048828125l0,26.5625q-6.982421875,5.56640625-14.404296875,8.3740234375t-15.234375,2.8076171875q-10.546875,0-19.1650390625-4.5166015625t-13.0126953125-13.0615234375t-4.39453125-19.091796875q0-10.44921875,4.3701171875-19.5068359375t12.5732421875-13.4521484375t18.896484375-4.39453125q7.763671875,0,14.0380859375,2.5146484375t9.8388671875,7.0068359375t5.419921875,11.71875l-8.544921875,2.34375q-1.611328125-5.46875-4.00390625-8.59375t-6.8359375-5.0048828125t-9.86328125-1.8798828125q-6.494140625,0-11.23046875,1.9775390625t-7.6416015625,5.2001953125t-4.5166015625,7.080078125q-2.734375,6.640625-2.734375,14.404296875q0,9.5703125,3.2958984375,16.015625t9.5947265625,9.5703125t13.37890625,3.125q6.15234375,0,12.01171875-2.3681640625t8.88671875-5.0537109375l0-13.330078125l-21.044921875,0z M87.109375,119.921875l0-71.58203125l9.47265625,0l0,71.58203125l-9.47265625,0z M133.740234375,119.921875l-27.734375-71.58203125l10.25390625,0l18.603515625,52.001953125q2.24609375,6.25,3.759765625,11.71875q1.66015625-5.859375,3.857421875-11.71875l19.3359375-52.001953125l9.66796875,0l-28.02734375,71.58203125l-9.716796875,0z M180.17578125,119.921875l0-71.58203125l51.7578125,0l0,8.447265625l-42.28515625,0l0,21.923828125l39.599609375,0l0,8.3984375l-39.599609375,0l0,24.365234375l43.9453125,0l0,8.447265625l-53.41796875,0z  M274.169921875,119.921875l0-71.58203125l14.2578125,0l16.943359375,50.68359375q2.34375,7.080078125,3.41796875,10.595703125q1.220703125-3.90625,3.80859375-11.474609375l17.138671875-49.8046875l12.744140625,0l0,71.58203125l-9.130859375,0l0-59.912109375l-20.80078125,59.912109375l-8.544921875,0l-20.703125-60.9375l0,60.9375l-9.130859375,0z M357.958984375,119.921875l0-71.58203125l51.7578125,0l0,8.447265625l-42.28515625,0l0,21.923828125l39.599609375,0l0,8.3984375l-39.599609375,0l0,24.365234375l43.9453125,0l0,8.447265625l-53.41796875,0z  M444.384765625,119.921875l27.490234375-71.58203125l10.205078125,0l29.296875,71.58203125l-10.791015625,0l-8.349609375-21.6796875l-29.931640625,0l-7.861328125,21.6796875l-10.05859375,0z M465.0390625,90.52734375l24.267578125,0l-7.470703125-19.82421875q-3.41796875-9.033203125-5.078125-14.84375q-1.3671875,6.884765625-3.857421875,13.671875z  M597.802734375,94.82421875l9.47265625,2.392578125q-2.978515625,11.669921875-10.7177734375,17.7978515625t-18.9208984375,6.1279296875q-11.572265625,0-18.8232421875-4.7119140625t-11.03515625-13.6474609375t-3.7841796875-19.189453125q0-11.181640625,4.2724609375-19.5068359375t12.158203125-12.646484375t17.3583984375-4.3212890625q10.7421875,0,18.06640625,5.46875t10.205078125,15.380859375l-9.326171875,2.197265625q-2.490234375-7.8125-7.2265625-11.376953125t-11.9140625-3.564453125q-8.251953125,0-13.7939453125,3.955078125t-7.7880859375,10.6201171875t-2.24609375,13.7451171875q0,9.130859375,2.6611328125,15.9423828125t8.2763671875,10.1806640625t12.158203125,3.369140625q7.958984375,0,13.4765625-4.58984375t7.470703125-13.623046875z M611.083984375,119.921875l27.490234375-71.58203125l10.205078125,0l29.296875,71.58203125l-10.791015625,0l-8.349609375-21.6796875l-29.931640625,0l-7.861328125,21.6796875l-10.05859375,0z M631.73828125,90.52734375l24.267578125,0l-7.470703125-19.82421875q-3.41796875-9.033203125-5.078125-14.84375q-1.3671875,6.884765625-3.857421875,13.671875z M685.25390625,119.921875l0-71.58203125l9.47265625,0l0,63.134765625l35.25390625,0l0,8.447265625l-44.7265625,0z M740.869140625,119.921875l0-71.58203125l9.47265625,0l0,63.134765625l35.25390625,0l0,8.447265625l-44.7265625,0z"/></g></svg>
